<svg width="40" height="41" viewBox="0 0 40 41" fill="none" xmlns="http://www.w3.org/2000/svg">
<path fill-rule="evenodd" clip-rule="evenodd" d="M38.0215 22.7911C39.075 23.1232 39.6597 24.2465 39.3276 25.2999L38.8291 26.8808L38.1613 28.4929L37.3556 30.0407L36.4181 31.5124L35.3558 32.8967L34.1769 34.1832L32.8904 35.3621L31.5061 36.4244L30.0344 37.3619L28.5641 38.1273C27.5843 38.6373 26.3766 38.2566 25.8666 37.2768C25.3565 36.297 25.7373 35.0893 26.7171 34.5793L28.0325 33.8945L29.2096 33.1446L30.3168 32.295L31.3458 31.3521L32.2887 30.3231L33.1383 29.2159L33.8882 28.0388L34.5327 26.8008L35.0668 25.5114L35.5127 24.0971C35.8448 23.0436 36.9681 22.4589 38.0215 22.7911Z" fill="#FEFEFF"/>
<path fill-rule="evenodd" clip-rule="evenodd" d="M38.1933 18.8672C37.1149 19.1062 36.0469 18.4258 35.8078 17.3475L35.4868 15.8996L35.0671 14.5686L34.533 13.2792L33.8886 12.0412L33.1387 10.8641L32.2891 9.75687L31.3462 8.72789L30.3172 7.785L29.21 6.93538L28.0329 6.18549L26.7949 5.54105L25.5055 5.00696L24.1745 4.58727L22.8119 4.2852L21.4282 4.10303L20.0338 4.04215L18.6395 4.10303L17.2558 4.2852L15.8932 4.58728L14.5622 5.00695L13.2727 5.54105L12.0348 6.18549L10.8577 6.93538L9.75046 7.785L8.72148 8.72789L7.77859 9.75687L6.92897 10.8641L6.17909 12.0412L5.53464 13.2792L5.00056 14.5685L4.58087 15.8996L4.2788 17.2622L4.09663 18.6459L4.03575 20.0403L4.09662 21.4346L4.2788 22.8183L4.58087 24.1809L5.00055 25.5119L5.53464 26.8013L6.17909 28.0393L6.92897 29.2164L7.77859 30.3236L8.72149 31.3526L9.75047 32.2955L10.8577 33.1451L12.0348 33.895L13.2728 34.5394L14.5621 35.0735L15.8932 35.4932L17.2558 35.7953L18.6395 35.9775L20.1211 36.0421C21.2246 36.0903 22.0801 37.024 22.0319 38.1275C21.9838 39.231 21.0501 40.0865 19.9466 40.0383L18.2906 39.966L16.5605 39.7383L14.857 39.3606L13.1928 38.8359L11.5807 38.1681L10.0329 37.3624L8.56122 36.4248L7.17687 35.3626L5.89036 34.1837L4.7115 32.8972L3.64924 31.5129L2.71169 30.0412L1.90596 28.4934L1.2382 26.8813L0.713489 25.2171L0.335812 23.5135L0.10805 21.7835L0.0319377 20.0402L0.108055 18.297L0.335814 16.567L0.71349 14.8634L1.2382 13.1992L1.90596 11.5871L2.71169 10.0393L3.64924 8.56763L4.7115 7.18327L5.89036 5.89676L7.17687 4.7179L8.56122 3.65565L10.0329 2.71809L11.5807 1.91237L13.1928 1.24461L14.857 0.719892L16.5605 0.342217L18.2906 0.114456L20.0338 0.0383425L21.7771 0.114455L23.5071 0.342217L25.2107 0.71989L26.8749 1.24461L28.487 1.91236L30.0348 2.71809L31.5065 3.65565L32.8908 4.7179L34.1773 5.89676L35.3562 7.18327L36.4184 8.56763L37.356 10.0393L38.1617 11.5871L38.8295 13.1992L39.3542 14.8634L39.713 16.4817C39.952 17.5601 39.2716 18.6281 38.1933 18.8672Z" fill="#FEFEFF" fill-opacity="0.25"/>
</svg>
