<svg width="86" height="56" viewBox="0 0 86 56" fill="none" xmlns="http://www.w3.org/2000/svg">
<path d="M65.2535 14.7016C63.6817 21.5377 86.6502 17.9294 85.7439 31.221C85.4748 35.224 82.4161 39.1847 77.7856 39.1988L36.5075 39.382L36.4225 33.7017L43.6303 33.5608C47.6236 33.4903 50.753 30.0511 51.6027 26.33C52.1974 23.7788 52.0841 21.284 51.2345 18.8879C49.776 14.758 46.0517 12.1927 41.6761 12.0095C37.6262 11.8404 34.1285 13.8841 32.3584 17.5206C30.9849 20.3537 30.645 23.4405 30.8008 26.6542L42.0726 26.6824V32.4613H30.7583V55.9577L24.74 56V32.4472C21.5256 32.4191 18.4386 32.56 15.3516 32.3486C6.54366 31.813 0.114752 24.85 0.00146752 16.4776C-0.111817 7.86556 6.34542 0.719392 15.2808 0.0851166C17.5606 -0.0699285 19.6564 0.0287366 22.1628 0.0569266V5.68083C19.9537 5.73721 18.1554 5.70902 16.2295 5.84997C10.4378 6.28692 6.37374 10.6705 6.33125 16.1675C6.28877 21.6646 10.2679 26.1327 16.0596 26.5696C18.8492 26.7811 21.7521 26.6683 24.7117 26.6683C24.6409 23.2432 24.7684 20.0718 25.8729 16.9146C28.1811 10.3181 34.0011 6.3433 40.9681 6.23054C49.3511 6.10368 56.035 11.5725 57.6068 19.7476C58.5414 24.6104 57.9891 29.3323 54.7463 33.6453H76.582C77.9414 33.6453 79.0742 32.5036 79.3291 31.4324C80.9151 24.695 59.8442 27.0911 58.8954 16.7595C58.598 13.574 59.5043 10.5577 62.2231 8.82402C64.1631 7.58366 66.6696 6.93529 69.0344 6.93529L85.1067 6.893V12.7001L67.7599 12.7283C66.528 12.7283 65.4659 13.6445 65.2252 14.7016H65.2535Z" fill="#FEFEFF"/>
<path d="M41.4921 47.6981C41.3505 47.7686 41.2089 47.825 41.0956 47.8813C40.9823 47.9377 40.8124 47.9941 40.6283 48.0646C40.4584 48.1209 40.2884 48.1632 40.0902 48.1914C39.8919 48.2337 39.6795 48.2478 39.453 48.2478C39.014 48.2478 38.6175 48.1914 38.2635 48.0646C37.9095 47.9377 37.5979 47.7545 37.3289 47.4867C37.074 47.233 36.8616 46.9088 36.72 46.5141C36.5784 46.1195 36.5076 45.6684 36.5076 45.1469C36.5076 44.6536 36.5784 44.2166 36.72 43.822C36.8616 43.4273 37.0598 43.1031 37.3289 42.8353C37.5838 42.5816 37.8953 42.3702 38.2635 42.2433C38.6317 42.1165 39.0282 42.0319 39.4671 42.0319C39.7928 42.0319 40.1185 42.0742 40.4301 42.1447C40.7557 42.2151 41.1098 42.3561 41.5063 42.5534V43.4978H41.4496C41.1239 43.2159 40.7841 43.0186 40.4584 42.8917C40.1327 42.7648 39.7787 42.7085 39.4105 42.7085C39.099 42.7085 38.8299 42.7648 38.5892 42.8494C38.3484 42.9481 38.1219 43.1031 37.9378 43.3146C37.7537 43.5119 37.6121 43.7656 37.4988 44.0757C37.3997 44.3858 37.343 44.7381 37.343 45.1469C37.343 45.5557 37.3997 45.9362 37.513 46.2322C37.6263 46.5282 37.782 46.7819 37.9519 46.9793C38.136 47.1766 38.3626 47.3316 38.6175 47.4162C38.8724 47.5149 39.1414 47.5572 39.4105 47.5572C39.7928 47.5572 40.161 47.4867 40.5009 47.3598C40.8407 47.233 41.1522 47.0356 41.4496 46.7678H41.5063V47.6981H41.4921Z" fill="#FEFEFF"/>
<path d="M46.3492 45.9503H43.0214C43.0214 46.2322 43.0639 46.4718 43.1489 46.6692C43.2338 46.8806 43.3471 47.0497 43.4887 47.1766C43.6303 47.3034 43.8003 47.4021 43.9843 47.4726C44.1826 47.5431 44.395 47.5712 44.6216 47.5712C44.9331 47.5712 45.2446 47.5149 45.5562 47.388C45.8677 47.2612 46.0943 47.1484 46.2217 47.0215H46.2642V47.8531C46.0093 47.9659 45.7403 48.0505 45.4854 48.121C45.2305 48.1914 44.9331 48.2337 44.6499 48.2337C43.8994 48.2337 43.3188 48.0364 42.894 47.6276C42.4692 47.2189 42.2568 46.6551 42.2568 45.908C42.2568 45.161 42.455 44.5831 42.8657 44.1603C43.2622 43.7233 43.8003 43.5119 44.4516 43.5119C45.0605 43.5119 45.5278 43.6951 45.8677 44.0475C46.2076 44.3999 46.3633 44.9073 46.3633 45.5557V45.9644L46.3492 45.9503ZM45.6128 45.3724C45.6128 44.9778 45.5137 44.6677 45.3154 44.4563C45.1172 44.2448 44.8198 44.1321 44.4092 44.1321C43.9985 44.1321 43.6728 44.2448 43.4321 44.4844C43.1914 44.7241 43.0497 45.02 43.0214 45.3724H45.6128Z" fill="#FEFEFF"/>
<path d="M51.277 48.1209H50.5124V45.5557C50.5124 45.3442 50.5124 45.161 50.4699 44.9778C50.4416 44.7945 50.3991 44.6536 50.3424 44.5549C50.2716 44.4421 50.1725 44.3576 50.0451 44.3012C49.9176 44.2448 49.7477 44.2166 49.5495 44.2166C49.3512 44.2166 49.1246 44.273 48.8981 44.3717C48.6715 44.4703 48.4591 44.5972 48.2467 44.7663V48.1209H47.482V43.6246H48.2467V44.118C48.4874 43.9206 48.7281 43.7656 48.983 43.6528C49.2379 43.5401 49.4928 43.4837 49.7619 43.4837C50.2433 43.4837 50.6257 43.6246 50.8805 43.9206C51.1354 44.2166 51.2629 44.6395 51.2629 45.1892V48.1069L51.277 48.1209Z" fill="#FEFEFF"/>
<path d="M55.1005 48.0928C54.9588 48.135 54.8031 48.1632 54.6332 48.1914C54.4632 48.2196 54.3075 48.2337 54.18 48.2337C53.7127 48.2337 53.3729 48.1068 53.1321 47.8672C52.8914 47.6276 52.7781 47.2189 52.7781 46.6833V44.2871H52.2683V43.6528H52.7781V42.3561H53.5428V43.6528H55.1146V44.2871H53.5428V46.3309C53.5428 46.5705 53.5428 46.7537 53.5569 46.8806C53.5569 47.0074 53.5994 47.1343 53.6702 47.2471C53.7269 47.3598 53.8118 47.4303 53.911 47.4867C54.0101 47.543 54.18 47.5571 54.3924 47.5571C54.5199 47.5571 54.6473 47.543 54.7748 47.5008C54.9022 47.4585 55.0013 47.4303 55.0721 47.4162H55.1146V48.0928H55.1005Z" fill="#FEFEFF"/>
<path d="M58.8247 44.4562H58.7822C58.6689 44.428 58.5556 44.4139 58.4565 44.3998C58.3432 44.3998 58.2299 44.3858 58.0741 44.3858C57.8334 44.3858 57.6068 44.4421 57.3944 44.5408C57.182 44.6395 56.9696 44.7804 56.7572 44.9355V48.135H55.9925V43.6387H56.7572V44.3012C57.0546 44.0616 57.3236 43.8924 57.5502 43.7938C57.7768 43.6951 58.0175 43.6387 58.2582 43.6387C58.3857 43.6387 58.4848 43.6387 58.5414 43.6387C58.5981 43.6387 58.6972 43.6528 58.8105 43.681V44.4562H58.8247Z" fill="#FEFEFF"/>
<path d="M63.3986 45.8798C63.3986 46.6128 63.2145 47.1907 62.8321 47.6135C62.4498 48.0364 61.9542 48.2478 61.3169 48.2478C60.6797 48.2478 60.1699 48.0364 59.7876 47.6135C59.4053 47.1907 59.2212 46.6128 59.2212 45.8798C59.2212 45.1469 59.4053 44.569 59.7876 44.1462C60.1699 43.7233 60.6656 43.5119 61.3169 43.5119C61.9683 43.5119 62.4498 43.7233 62.8321 44.1462C63.2145 44.569 63.3986 45.1469 63.3986 45.8798ZM62.6197 45.8798C62.6197 45.3019 62.5064 44.865 62.2799 44.5831C62.0533 44.3012 61.7276 44.1603 61.3311 44.1603C60.9346 44.1603 60.5948 44.3012 60.3682 44.5831C60.1416 44.865 60.0283 45.3019 60.0283 45.8798C60.0283 46.4577 60.1416 46.8665 60.3682 47.1625C60.5948 47.4585 60.9205 47.5994 61.3311 47.5994C61.7418 47.5994 62.0533 47.4585 62.2799 47.1625C62.5064 46.8806 62.6197 46.4436 62.6197 45.8798Z" fill="#FEFEFF"/>
<path d="M40.7841 51.5601C40.7841 51.8279 40.7416 52.0675 40.6425 52.2931C40.5434 52.5186 40.4159 52.7159 40.246 52.8851C40.0336 53.0965 39.7928 53.2515 39.5096 53.3502C39.2264 53.4489 38.8724 53.5052 38.4334 53.5052H37.6263V55.7463H36.8191V49.756H38.4476C38.8158 49.756 39.1131 49.7842 39.368 49.8405C39.6229 49.8969 39.8353 49.9956 40.0336 50.1224C40.2601 50.2775 40.4442 50.4607 40.5717 50.7003C40.6991 50.9259 40.7558 51.2219 40.7558 51.5601H40.7841ZM39.9486 51.5742C39.9486 51.3628 39.9061 51.1937 39.8353 51.0386C39.7645 50.8836 39.6512 50.7567 39.5096 50.658C39.3822 50.5735 39.2264 50.5171 39.0707 50.4748C38.9149 50.4325 38.6883 50.4184 38.4476 50.4184H37.6546V52.8146H38.3343C38.66 52.8146 38.9149 52.7864 39.1273 52.73C39.3397 52.6736 39.4955 52.575 39.6229 52.4481C39.7504 52.3213 39.8353 52.1803 39.892 52.0394C39.9486 51.8984 39.9769 51.7434 39.9769 51.5601L39.9486 51.5742Z" fill="#FEFEFF"/>
<path d="M45.0889 55.7463H44.3242V55.2671C44.3242 55.2671 44.1685 55.3799 44.0552 55.4644C43.9419 55.549 43.8286 55.6054 43.7153 55.6618C43.5879 55.7181 43.4463 55.7745 43.2763 55.8168C43.1064 55.8591 42.9223 55.8732 42.6958 55.8732C42.2851 55.8732 41.9452 55.7322 41.662 55.4644C41.3788 55.1966 41.2372 54.8583 41.2372 54.4355C41.2372 54.0972 41.308 53.8153 41.4638 53.6039C41.6054 53.3925 41.8178 53.2233 42.0868 53.1106C42.3559 52.9837 42.6958 52.9132 43.0781 52.871C43.4604 52.8287 43.8711 52.8005 44.3242 52.7723V52.6595C44.3242 52.4904 44.2959 52.3494 44.2393 52.2367C44.1826 52.1239 44.0977 52.0393 43.9844 51.9689C43.8711 51.9125 43.7436 51.8702 43.602 51.842C43.4463 51.8138 43.2905 51.8138 43.1347 51.8138C42.9365 51.8138 42.7099 51.842 42.4692 51.8843C42.2285 51.9407 41.9736 52.0112 41.7045 52.1098H41.662V51.3346C41.8036 51.2923 42.0302 51.25 42.2993 51.2077C42.5825 51.1655 42.8515 51.1373 43.1347 51.1373C43.4604 51.1373 43.7295 51.1655 43.9702 51.2077C44.2109 51.2641 44.4092 51.3487 44.5791 51.4756C44.749 51.6024 44.8765 51.7575 44.9614 51.9548C45.0464 52.1521 45.1031 52.3917 45.1031 52.6877V55.7463H45.0889ZM44.3242 54.6328V53.3784C44.0977 53.3784 43.8144 53.4066 43.5029 53.4348C43.1914 53.4629 42.9365 53.5052 42.7524 53.5475C42.54 53.6039 42.3559 53.7026 42.2285 53.8294C42.101 53.9563 42.0302 54.1395 42.0302 54.365C42.0302 54.6187 42.101 54.8161 42.2709 54.9429C42.4409 55.0698 42.6674 55.1402 42.9931 55.1402C43.2622 55.1402 43.5029 55.0839 43.7295 54.9852C43.956 54.8865 44.1543 54.7597 44.3384 54.6187L44.3242 54.6328Z" fill="#FEFEFF"/>
<path d="M50.3 55.7463H49.5353V55.253C49.2804 55.4503 49.0397 55.6054 48.799 55.7181C48.5582 55.8309 48.3033 55.8732 48.0201 55.8732C47.5528 55.8732 47.1705 55.7322 46.9156 55.4362C46.6465 55.1543 46.5191 54.7315 46.5191 54.1677V51.25H47.2838V53.8153C47.2838 54.0408 47.2838 54.2382 47.3121 54.4073C47.3404 54.5624 47.3829 54.7033 47.4537 54.8302C47.5245 54.9429 47.6236 55.0275 47.7369 55.0839C47.8502 55.1403 48.0201 55.1684 48.2467 55.1684C48.4449 55.1684 48.6573 55.1121 48.8981 55.0134C49.1246 54.9147 49.3512 54.7879 49.5495 54.6187V51.2641H50.3141V55.7604L50.3 55.7463Z" fill="#FEFEFF"/>
<path d="M52.5657 55.7464H51.801V49.4741H52.5657V55.7464Z" fill="#FEFEFF"/>
<path d="M57.5785 55.7463H56.8139V55.2671C56.8139 55.2671 56.6581 55.3799 56.5448 55.4644C56.4315 55.549 56.3182 55.6054 56.205 55.6618C56.0775 55.7181 55.9359 55.7745 55.766 55.8168C55.5961 55.8591 55.412 55.8732 55.1854 55.8732C54.7747 55.8732 54.4349 55.7322 54.1517 55.4644C53.8685 55.1966 53.7269 54.8583 53.7269 54.4355C53.7269 54.0972 53.7977 53.8153 53.9534 53.6039C54.095 53.3925 54.3074 53.2233 54.5765 53.1106C54.8455 52.9837 55.1854 52.9132 55.5677 52.871C55.9501 52.8287 56.3607 52.8005 56.8139 52.7723V52.6595C56.8139 52.4904 56.7855 52.3494 56.7289 52.2367C56.6723 52.1239 56.5873 52.0393 56.474 51.9689C56.3607 51.9125 56.2333 51.8702 56.0917 51.842C55.9501 51.8138 55.7801 51.8138 55.6244 51.8138C55.4261 51.8138 55.1996 51.842 54.9588 51.8843C54.7181 51.9407 54.4632 52.0112 54.1942 52.1098H54.1517V51.3346C54.2933 51.2923 54.5198 51.25 54.7889 51.2077C55.0579 51.1655 55.3412 51.1373 55.6244 51.1373C55.9359 51.1373 56.2191 51.1655 56.4598 51.2077C56.7006 51.2641 56.8988 51.3487 57.0688 51.4756C57.2387 51.6024 57.3661 51.7575 57.4511 51.9548C57.5361 52.1521 57.5927 52.3917 57.5927 52.6877V55.7463H57.5785ZM56.828 54.6328V53.3784C56.6015 53.3784 56.3182 53.4066 56.0067 53.4348C55.6952 53.4629 55.4403 53.5052 55.2562 53.5475C55.0296 53.6039 54.8597 53.7026 54.7181 53.8294C54.5765 53.9563 54.5198 54.1395 54.5198 54.365C54.5198 54.6187 54.5906 54.8161 54.7606 54.9429C54.9163 55.0698 55.1571 55.1402 55.4828 55.1402C55.7518 55.1402 55.9926 55.0839 56.2191 54.9852C56.4457 54.8865 56.6439 54.7597 56.828 54.6187V54.6328Z" fill="#FEFEFF"/>
<path d="M66.4006 54.0267C66.4006 54.2523 66.344 54.4919 66.2307 54.7174C66.1174 54.9429 65.9616 55.1402 65.7775 55.2953C65.5651 55.4644 65.3102 55.6054 65.027 55.704C64.7438 55.8027 64.3898 55.845 63.9933 55.845C63.5543 55.845 63.172 55.8027 62.818 55.7181C62.464 55.6336 62.1241 55.5208 61.7559 55.3658V54.365H61.8126C62.1241 54.6187 62.464 54.8161 62.8746 54.9429C63.2853 55.0698 63.6535 55.1543 63.9933 55.1543C64.4889 55.1543 64.8713 55.0557 65.1545 54.8724C65.4377 54.6892 65.5651 54.4355 65.5651 54.1254C65.5651 53.8576 65.4943 53.6603 65.3669 53.5334C65.2394 53.4066 65.0412 53.3079 64.7721 53.2374C64.5739 53.181 64.3473 53.1388 64.1208 53.1106C63.88 53.0824 63.6393 53.026 63.3702 52.9837C62.8321 52.871 62.4356 52.6736 62.1808 52.4058C61.9259 52.138 61.7984 51.7856 61.7984 51.3346C61.7984 50.8272 62.0108 50.4184 62.4356 50.0942C62.8605 49.7701 63.3986 49.615 64.0641 49.615C64.4889 49.615 64.8713 49.6573 65.2253 49.7419C65.5793 49.8264 65.8908 49.9251 66.1599 50.0379V50.9822H66.1032C65.8767 50.7849 65.5793 50.6298 65.197 50.503C64.8288 50.3761 64.4464 50.3057 64.05 50.3057C63.6251 50.3057 63.2711 50.3902 63.0162 50.5735C62.7613 50.7567 62.6197 50.9822 62.6197 51.2641C62.6197 51.5178 62.6905 51.7152 62.818 51.8561C62.9454 51.9971 63.172 52.1098 63.4977 52.1803C63.6676 52.2226 63.9083 52.2649 64.234 52.3212C64.5597 52.3776 64.8288 52.434 65.0412 52.4904C65.4943 52.6031 65.82 52.7864 66.0466 53.026C66.2732 53.2656 66.3865 53.6039 66.3865 54.0267H66.4006Z" fill="#FEFEFF"/>
<path d="M71.4701 53.4911C71.4701 54.2241 71.286 54.802 70.9037 55.2248C70.5213 55.6477 70.0257 55.8591 69.3885 55.8591C68.7513 55.8591 68.2415 55.6477 67.8592 55.2248C67.4768 54.802 67.2927 54.2241 67.2927 53.4911C67.2927 52.7582 67.4768 52.1803 67.8592 51.7574C68.2415 51.3346 68.7371 51.1232 69.3885 51.1232C70.0399 51.1232 70.5213 51.3346 70.9037 51.7574C71.286 52.1803 71.4701 52.7582 71.4701 53.4911ZM70.6913 53.4911C70.6913 52.9132 70.578 52.4763 70.3514 52.1944C70.1249 51.9125 69.7992 51.7715 69.4027 51.7715C69.0062 51.7715 68.6663 51.9125 68.4397 52.1944C68.2132 52.4763 68.0999 52.9132 68.0999 53.4911C68.0999 54.069 68.2132 54.4778 68.4397 54.7738C68.6663 55.0698 68.992 55.2107 69.4027 55.2107C69.8133 55.2107 70.1249 55.0698 70.3514 54.7738C70.578 54.4919 70.6913 54.0549 70.6913 53.4911Z" fill="#FEFEFF"/>
<path d="M76.398 55.7463H75.6333V55.253C75.3784 55.4503 75.1377 55.6054 74.897 55.7181C74.6562 55.8309 74.4013 55.8732 74.1181 55.8732C73.6508 55.8732 73.2685 55.7322 73.0136 55.4362C72.7445 55.1543 72.6171 54.7315 72.6171 54.1677V51.25H73.3818V53.8153C73.3818 54.0408 73.3818 54.2382 73.4101 54.4073C73.4384 54.5624 73.4809 54.7033 73.5517 54.8302C73.6225 54.9429 73.7216 55.0275 73.8349 55.0839C73.9482 55.1403 74.1181 55.1684 74.3447 55.1684C74.5429 55.1684 74.7553 55.1121 74.9961 55.0134C75.2226 54.9147 75.4492 54.7879 75.6475 54.6187V51.2641H76.4121V55.7604L76.398 55.7463Z" fill="#FEFEFF"/>
<path d="M81.1701 55.7463H77.5166V55.1825L80.1505 51.8702H77.5733V51.2359H81.0993V51.7715L78.4512 55.0839H81.1701V55.7181V55.7463Z" fill="#FEFEFF"/>
<path d="M85.7581 55.7463H84.9935V55.2671C84.9935 55.2671 84.8377 55.3799 84.7244 55.4644C84.6111 55.549 84.4979 55.6054 84.3846 55.6618C84.2571 55.7181 84.1155 55.7745 83.9456 55.8168C83.7757 55.8591 83.5916 55.8732 83.365 55.8732C82.9543 55.8732 82.6145 55.7322 82.3313 55.4644C82.0481 55.1966 81.9065 54.8583 81.9065 54.4355C81.9065 54.0972 81.9773 53.8153 82.133 53.6039C82.2746 53.3925 82.487 53.2233 82.7561 53.1106C83.0251 52.9837 83.365 52.9132 83.7473 52.871C84.1297 52.8287 84.5403 52.8005 84.9935 52.7723V52.6595C84.9935 52.4904 84.9652 52.3494 84.9085 52.2367C84.8519 52.1239 84.7669 52.0393 84.6536 51.9689C84.5403 51.9125 84.4129 51.8702 84.2713 51.842C84.1297 51.8138 83.9598 51.8138 83.804 51.8138C83.6057 51.8138 83.3792 51.842 83.1384 51.8843C82.8977 51.9407 82.6428 52.0112 82.3738 52.1098H82.3313V51.3346C82.4729 51.2923 82.6995 51.25 82.9685 51.2077C83.2376 51.1655 83.5208 51.1373 83.804 51.1373C84.1155 51.1373 84.3987 51.1655 84.6395 51.2077C84.8802 51.2641 85.0784 51.3487 85.2484 51.4756C85.4183 51.6024 85.5457 51.7575 85.6307 51.9548C85.7157 52.1521 85.7723 52.3917 85.7723 52.6877V55.7463H85.7581ZM85.0076 54.6328V53.3784C84.7811 53.3784 84.4979 53.4066 84.1863 53.4348C83.8748 53.4629 83.6199 53.5052 83.4358 53.5475C83.2092 53.6039 83.0393 53.7026 82.8977 53.8294C82.7561 53.9563 82.6995 54.1395 82.6995 54.365C82.6995 54.6187 82.7703 54.8161 82.9402 54.9429C83.096 55.0698 83.3367 55.1402 83.6624 55.1402C83.9314 55.1402 84.1722 55.0839 84.3987 54.9852C84.6253 54.8865 84.8235 54.7597 85.0076 54.6187V54.6328Z" fill="#FEFEFF"/>
</svg>
