<?xml version="1.0" encoding="UTF-8"?>
<svg id="Camada_2" data-name="Camada 2" xmlns="http://www.w3.org/2000/svg" viewBox="0 0 80.93 51.65">
  <defs>
    <style>
      .cls-1 {
        fill: #fff;
      }

      .cls-2 {
        fill: #666;
      }

      .cls-3 {
        fill: #f15a24;
      }
    </style>
  </defs>
  <g id="Camada_10" data-name="Camada 10">
    <g id="Camada_17" data-name="Camada 17">
      <g>
        <path class="cls-2" d="M24.15,32.92c0,10.71-24.15,12.24-24.15-2.54h4.99c0,8.06,14.55,7.2,14.55,2.54,0-7.06-18.82-1.54-18.82-12.82,0-12.05,22.61-12.05,22.61,1.3h-4.61c0-7.06-13.39-7.06-13.39-1.3,0,6.14,18.82.48,18.82,12.82Z"/>
        <path class="cls-2" d="M27.79,17.99h4.61v22.85h-4.61v-22.85Z"/>
      </g>
      <path class="cls-2" d="M30.1,11.17c1.63,0,2.74,1.1,2.74,2.74s-1.1,2.69-2.74,2.69-2.69-1.06-2.69-2.69,1.06-2.74,2.69-2.74Z"/>
      <g>
        <polygon class="cls-3" points="58.83 51.65 36.73 38.89 36.73 13.37 58.83 .61 80.93 13.37 80.93 38.89 58.83 51.65"/>
        <path class="cls-1" d="M51.25,8.88c4.64-3.65,10.99-3.99,15.8-.84,2.43,1.59,3.61,3.42,3.59,5.17h-3.65c.04-1.21-.72-2.45-2.4-3.51-3.27-2.08-7.65-1.83-10.91.61-7.09,5.32,3.11,10.89,9.47,7.04l-6.28-3.61,2.42-1.67,8.81,5.26-9.26,5.31-2.39-1.23,3.05-1.85-.23-.12-.08.05c-4.32,2.63-17.99-2.72-7.96-10.6Z"/>
        <path class="cls-1" d="M68.16,24.41l3.32-1.97,6.98,14.38-3.12,1.81-1.4-3.01-7.97,4.65-1.33,4.57-3.12,1.81,6.64-22.24ZM72.81,33.38l-2.57-5.3c-.18-.32-.24-.7-.25-1.15v-.12s-.27.16-.27.16v.12c0,.45-.05.91-.22,1.43l-2.44,8.23,5.75-3.36Z"/>
        <polygon class="cls-1" points="36.73 13.37 58.83 26.13 58.83 51.65 36.73 13.37"/>
      </g>
    </g>
  </g>
</svg>