<svg width="114" height="72" viewBox="0 0 114 72" fill="none" xmlns="http://www.w3.org/2000/svg">
<g clip-path="url(#clip0_1_7)">
<path d="M34.0183 45.5784C34.0183 60.6865 0 62.8448 0 41.9953H7.02904C7.02904 53.3652 27.5245 52.152 27.5245 45.5784C27.5245 35.6191 1.01421 43.406 1.01421 27.4937C1.01421 10.4953 32.8632 10.4953 32.8632 29.3276H26.3695C26.3695 19.3683 7.50797 19.3683 7.50797 27.4937C7.50797 36.1552 34.0183 28.1708 34.0183 45.5784Z" fill="#FEFEFF"/>
<path d="M39.1457 24.5172H45.6395V56.7508H39.1457V24.5172Z" fill="#FEFEFF"/>
<path d="M42.3996 14.8965C44.6957 14.8965 46.2592 16.4483 46.2592 18.7617C46.2592 21.0752 44.7098 22.5564 42.3996 22.5564C40.0895 22.5564 38.6104 21.0611 38.6104 18.7617C38.6104 16.4624 40.1036 14.8965 42.3996 14.8965Z" fill="#FEFEFF"/>
<path d="M98.1812 38.2148V38.0455L97.8008 38.2712V38.4405C97.8008 39.0753 97.7304 39.7242 97.4909 40.4577L94.0539 52.0674L102.153 47.3276L98.5333 39.8511C98.2798 39.3997 98.1953 38.8637 98.1812 38.2289V38.2148Z" fill="#FEFEFF"/>
<path d="M82.8694 0L51.7388 18L82.8694 36V72L114 54V18L82.8694 0ZM79.5309 29.3276L83.8272 26.7179L83.5033 26.5486L83.3906 26.6191C77.3053 30.3292 58.0494 22.7821 72.1779 11.6661C78.7139 6.51724 87.6587 6.03762 94.4342 10.4812C97.8571 12.7241 99.5193 15.3056 99.4911 17.7743H94.3497C94.406 16.0674 93.3355 14.3182 90.969 12.8229C86.3628 9.88871 80.193 10.2414 75.6009 13.6834C65.6137 21.1881 79.9817 29.0455 88.9405 23.6144L80.0944 18.5219L83.5033 16.1661L95.9132 23.5862L82.8694 31.0768L79.5028 29.3417L79.5309 29.3276ZM105.731 54.7194L103.759 50.4875L92.5325 57.047L90.6591 63.4937L86.2642 66.047L95.6174 34.674L100.294 31.895L110.126 52.1803L105.731 54.7335V54.7194Z" fill="#FEFEFF"/>
<path d="M51.7388 54L82.8694 72L51.7388 18V54Z" fill="#FEFEFF"/>
</g>
<defs>
<clipPath id="clip0_1_7">
<rect width="114" height="72" fill="white"/>
</clipPath>
</defs>
</svg>
