<svg width="19" height="11" viewBox="0 0 19 11" fill="none" xmlns="http://www.w3.org/2000/svg">
<path d="M0.053905 1.37242C0.00962633 1.24018 -0.00765021 1.1004 0.00309973 0.961368C0.0138497 0.822331 0.0524073 0.686869 0.116486 0.563012C0.180565 0.439155 0.268861 0.329426 0.376139 0.240329C0.483416 0.151233 0.607492 0.0845834 0.741008 0.0443332C0.874524 0.00408307 1.01476 -0.00894839 1.15341 0.00601093C1.29206 0.0209702 1.42629 0.0636158 1.54814 0.13142C1.67 0.199223 1.77701 0.290805 1.86281 0.400734C1.94861 0.510663 2.01147 0.636701 2.04766 0.771376C4.22057 8.04846 14.5289 8.0495 16.7039 0.775543C16.7429 0.644358 16.8073 0.522136 16.8936 0.415856C16.9798 0.309576 17.0861 0.221319 17.2064 0.156125C17.3267 0.0909303 17.4587 0.0500751 17.5949 0.0358912C17.731 0.0217074 17.8686 0.0344729 17.9997 0.073459C18.1309 0.112445 18.2531 0.176889 18.3594 0.26311C18.4657 0.349331 18.554 0.455641 18.6192 0.57597C18.6843 0.696299 18.7252 0.828291 18.7394 0.964409C18.7536 1.10053 18.7408 1.23811 18.7018 1.36929C18.3231 2.67271 17.6802 3.88428 16.8133 4.92867L18.1414 6.25783C18.3312 6.45429 18.4361 6.71742 18.4338 6.99054C18.4314 7.26367 18.3218 7.52493 18.1287 7.71806C17.9356 7.9112 17.6743 8.02075 17.4012 8.02312C17.1281 8.02549 16.8649 7.9205 16.6685 7.73075L15.3029 6.36513C14.566 6.92107 13.7518 7.36639 12.8862 7.687L13.2581 9.07763C13.2977 9.21101 13.3103 9.35099 13.295 9.48931C13.2796 9.62762 13.2367 9.76146 13.1688 9.88293C13.1009 10.0044 13.0094 10.111 12.8996 10.1965C12.7897 10.282 12.6639 10.3446 12.5295 10.3807C12.3951 10.4167 12.2548 10.4255 12.117 10.4064C11.9791 10.3874 11.8465 10.3409 11.7269 10.2697C11.6073 10.1986 11.5032 10.1042 11.4207 9.99208C11.3382 9.88001 11.279 9.75254 11.2466 9.61721L10.8674 8.20367C9.88099 8.3495 8.87265 8.3495 7.8862 8.20367L7.50703 9.61721C7.47462 9.75254 7.41541 9.88001 7.33292 9.99208C7.25042 10.1042 7.14631 10.1986 7.02672 10.2697C6.90714 10.3409 6.7745 10.3874 6.63665 10.4064C6.4988 10.4255 6.35853 10.4167 6.22413 10.3807C6.08972 10.3446 5.9639 10.282 5.85409 10.1965C5.74429 10.111 5.65272 10.0044 5.58481 9.88293C5.5169 9.76146 5.47401 9.62762 5.45869 9.48931C5.44336 9.35099 5.4559 9.21101 5.49557 9.07763L5.86745 7.687C5.00176 7.36607 4.18761 6.92039 3.45078 6.36408L2.0862 7.73075C1.89088 7.92635 1.62585 8.03634 1.34943 8.03654C1.07301 8.03673 0.807835 7.92711 0.612238 7.73179C0.416641 7.53647 0.306646 7.27145 0.306451 6.99503C0.306255 6.71861 0.415876 6.45343 0.611197 6.25783L1.93932 4.92971C1.12266 3.95471 0.470572 2.76929 0.0518218 1.37346L0.053905 1.37242Z" fill="#F2F2F2"/>
</svg>
