<svg width="21" height="18" viewBox="0 0 21 18" fill="none" xmlns="http://www.w3.org/2000/svg">
<path fill-rule="evenodd" clip-rule="evenodd" d="M6.4754 0.043202C6.71249 -0.0312205 6.96957 -0.0088537 7.19009 0.105383C7.41062 0.21962 7.57653 0.416371 7.65133 0.652362L8.3788 2.94119C9.03876 2.78592 9.74672 2.69932 10.5027 2.69932C11.2586 2.69932 11.9651 2.78592 12.6251 2.9397L13.3465 0.653855C13.3835 0.5369 13.4432 0.428331 13.5223 0.334348C13.6013 0.240364 13.6983 0.162806 13.8074 0.106101C13.9166 0.0493967 14.036 0.0146566 14.1587 0.00386437C14.2814 -0.0069279 14.405 0.0064391 14.5225 0.043202C14.64 0.0799649 14.749 0.139404 14.8434 0.218125C14.9379 0.296846 15.0158 0.393308 15.0727 0.502003C15.1297 0.610698 15.1646 0.729498 15.1755 0.851619C15.1863 0.97374 15.1729 1.09679 15.1359 1.21375L14.3965 3.55334C15.5398 4.09645 16.5749 4.84103 17.4518 5.7511L19.3987 3.81014C19.5743 3.63492 19.8127 3.53633 20.0614 3.53605C20.31 3.53577 20.5486 3.63383 20.7246 3.80865C20.9007 3.98347 20.9997 4.22075 21 4.46826C21.0003 4.71578 20.9018 4.95328 20.7261 5.1285L18.6637 7.18441C19.1002 7.78163 19.4407 8.346 19.6927 8.80884C19.8879 9.1718 20.0641 9.54456 20.2207 9.92564C20.2426 9.98471 20.2626 10.0445 20.2807 10.1048L20.2957 10.1705C20.3197 10.2882 20.3197 10.4096 20.2957 10.5273C20.2854 10.5742 20.2729 10.6205 20.2582 10.6662L20.2207 10.7737C20.1917 10.8463 20.1542 10.9364 20.1082 11.0439C19.9809 11.3309 19.8423 11.6128 19.6927 11.889C19.2158 12.7702 18.6456 13.598 17.9918 14.3585C16.4514 16.1456 13.996 18 10.5027 18C7.00937 18 4.554 16.1456 3.01208 14.3585C2.35879 13.598 1.78908 12.7701 1.31267 11.889C1.11751 11.5265 0.941284 11.1543 0.7847 10.7737C0.762808 10.7146 0.742799 10.6549 0.724703 10.5945L0.709704 10.5273C0.706704 10.5079 0.693204 10.4377 0.693204 10.3482C0.693204 10.2586 0.706704 10.1899 0.709704 10.172C0.719955 10.1251 0.732469 10.0788 0.747202 10.0331C0.758201 9.99631 0.7707 9.96047 0.7847 9.92564C0.811698 9.85198 0.848696 9.7619 0.895694 9.6554C0.990189 9.4404 1.12818 9.14926 1.31267 8.80884C1.56766 8.33555 1.91864 7.75774 2.36862 7.14858L0.285226 5.13895C0.196786 5.05366 0.126088 4.95186 0.0771685 4.83938C0.0282495 4.72689 0.00206765 4.60591 0.000117722 4.48335C-0.00382033 4.23583 0.0911827 3.9969 0.264227 3.8191C0.437272 3.64131 0.674183 3.53922 0.922843 3.5353C1.1715 3.53138 1.41154 3.62595 1.59016 3.7982L3.58355 5.72123C4.4537 4.82544 5.47776 4.09176 6.60739 3.55483L5.86343 1.21524C5.82595 1.09819 5.81207 0.974935 5.82256 0.852534C5.83305 0.730134 5.86772 0.611 5.92458 0.501969C5.98144 0.392937 6.05936 0.296154 6.15389 0.217171C6.24841 0.138188 6.35767 0.0785604 6.4754 0.0417089M2.96408 11.0051C2.8474 10.79 2.73834 10.5709 2.6371 10.3482C3.1061 9.3407 3.71062 8.40143 4.43401 7.55618C5.76744 6.01238 7.74733 4.56562 10.5027 4.56562C13.258 4.56562 15.2379 6.01387 16.5699 7.55618C17.2933 8.40143 17.8978 9.3407 18.3668 10.3482C18.2918 10.5139 18.1853 10.7393 18.0413 11.0051C17.6287 11.7675 17.1359 12.4842 16.5714 13.1431C15.2379 14.6869 13.2565 16.1337 10.5027 16.1337C7.74883 16.1337 5.76744 14.6854 4.43401 13.1431C3.86944 12.4842 3.37671 11.7675 2.96408 11.0051ZM7.10386 10.3034C7.11886 8.44603 8.65778 6.95896 10.5237 6.95896C12.3896 6.95896 13.9075 8.44603 13.8955 10.3034C13.882 12.1577 12.3416 13.6448 10.4757 13.6448C8.60978 13.6448 7.09186 12.1577 7.10536 10.3019" fill="#F2F2F2"/>
</svg>
