<svg width="14" height="14" viewBox="0 0 14 14" fill="none" xmlns="http://www.w3.org/2000/svg">
<path d="M8.32514 0C9.00938 0 9.66501 0.271964 10.1484 0.75538L12.5436 3.15052C12.783 3.38991 12.9729 3.67411 13.1024 3.9869C13.232 4.29968 13.2987 4.63492 13.2987 4.97348C13.2987 5.31203 13.232 5.64727 13.1024 5.96006C12.9729 6.27284 12.783 6.55704 12.5436 6.79643L10.7861 8.55389C10.3598 8.97981 9.79781 9.24306 9.19768 9.29796C8.59755 9.35286 7.99714 9.19594 7.50061 8.85444L7.43079 8.80258L3.51957 12.7145C3.21686 13.0162 2.82526 13.2127 2.40246 13.275L2.25617 13.293L2.10921 13.299H1.3299C0.655638 13.299 0.0884381 12.7943 0.00598457 12.0868L0 11.9691V11.1897C0 10.7216 0.164907 10.2681 0.485412 9.88644L0.584489 9.77939L0.859777 9.5041C0.98445 9.37938 1.15355 9.3093 1.3299 9.30927H1.99484V8.64432C1.99486 8.48145 2.05466 8.32425 2.16289 8.20255C2.27111 8.08084 2.42024 8.00308 2.58199 7.98403L2.65979 7.97937H3.32474V7.31442C3.32473 7.16827 3.37287 7.02618 3.46172 6.91014L3.51957 6.84364L4.49571 5.86683L4.44518 5.79834C4.17968 5.41199 4.02388 4.9609 3.99434 4.49305L3.98969 4.33612C3.98969 3.65189 4.26165 2.99625 4.74507 2.51284L6.50252 0.75538C6.98599 0.27206 7.64152 0.000378663 8.32514 0ZM8.65429 3.32474H8.64099C8.28828 3.32474 7.95002 3.46485 7.70062 3.71426C7.45121 3.96366 7.3111 4.30192 7.3111 4.65463C7.3111 5.00734 7.45121 5.34561 7.70062 5.59501C7.95002 5.84441 8.28828 5.98453 8.64099 5.98453H8.65429C9.007 5.98453 9.34527 5.84441 9.59467 5.59501C9.84408 5.34561 9.98419 5.00734 9.98419 4.65463C9.98419 4.30192 9.84408 3.96366 9.59467 3.71426C9.34527 3.46485 9.007 3.32474 8.65429 3.32474Z" fill="#FEFEFF"/>
</svg>
