<svg width="13" height="14" viewBox="0 0 13 14" fill="none" xmlns="http://www.w3.org/2000/svg">
<path d="M6.27993 0C5.47403 0 4.70113 0.320145 4.13126 0.890008C3.5614 1.45987 3.24126 2.23277 3.24126 3.03868C3.24126 3.84458 3.5614 4.61748 4.13126 5.18735C4.70113 5.75721 5.47403 6.07735 6.27993 6.07735C7.08584 6.07735 7.85874 5.75721 8.4286 5.18735C8.99847 4.61748 9.31861 3.84458 9.31861 3.03868C9.31861 2.23277 8.99847 1.45987 8.4286 0.890008C7.85874 0.320145 7.08584 0 6.27993 0ZM3.03868 7.69798C2.23277 7.69798 1.45987 8.01813 0.890008 8.58799C0.320145 9.15785 0 9.93075 0 10.7367V11.6993C0 12.3103 0.442431 12.8305 1.04531 12.9286C4.51183 13.495 8.04804 13.495 11.5146 12.9286C11.8061 12.8806 12.0712 12.7307 12.2626 12.5056C12.454 12.2805 12.5594 11.9948 12.5599 11.6993V10.7367C12.5599 9.93075 12.2397 9.15785 11.6699 8.58799C11.1 8.01813 10.3271 7.69798 9.52119 7.69798H9.24568C9.09442 7.69852 8.94749 7.72175 8.80487 7.76767L8.10314 7.99699C6.91844 8.38375 5.64143 8.38375 4.45673 7.99699L3.75499 7.76767C3.61276 7.72205 3.46436 7.69854 3.31499 7.69798H3.03868Z" fill="#FEFEFF"/>
</svg>
